<svg width="113" height="48" viewBox="0 0 113 48" fill="none" xmlns="http://www.w3.org/2000/svg">
<g clip-path="url(#clip0_850_679)">
<path d="M50.6092 19.3321C50.6092 13.3748 45.6988 8.54691 39.6411 8.54691C37.298 8.54089 35.0151 9.28465 33.129 10.6685V9.02669H28.668V37.0142H33.1265C33.1265 37.0142 33.1416 28.0432 33.1265 28.0182C35.0182 29.3888 37.2988 30.1248 39.6386 30.1198C45.6962 30.1198 50.6067 25.2919 50.6067 19.3371L50.6092 19.3321ZM45.6234 19.3321C45.6379 20.5128 45.2993 21.6712 44.6508 22.66C44.0023 23.6487 43.0731 24.4232 41.9813 24.8851C40.8895 25.3469 39.6845 25.4752 38.5192 25.2537C37.354 25.0322 36.2813 24.4708 35.4373 23.641C34.5934 22.8111 34.0163 21.7503 33.7795 20.5932C33.5428 19.4362 33.6569 18.2351 34.1075 17.1428C34.558 16.0505 35.3247 15.1161 36.31 14.4586C37.2953 13.801 38.4548 13.4498 39.6411 13.4497C41.218 13.4404 42.734 14.0549 43.8558 15.158C44.9777 16.2611 45.6135 17.7625 45.6234 19.3321V19.3321Z" fill="black"/>
<path d="M50.6092 19.3321C50.6092 13.3748 45.6988 8.54691 39.6411 8.54691C37.298 8.54089 35.0151 9.28465 33.129 10.6685V9.02669H28.668V37.0142H33.1265C33.1265 37.0142 33.1416 28.0432 33.1265 28.0182C35.0182 29.3888 37.2988 30.1248 39.6386 30.1198C45.6962 30.1198 50.6067 25.2919 50.6067 19.3371L50.6092 19.3321ZM45.6234 19.3321C45.6379 20.5128 45.2993 21.6712 44.6508 22.66C44.0023 23.6487 43.0731 24.4232 41.9813 24.8851C40.8895 25.3469 39.6845 25.4752 38.5192 25.2537C37.354 25.0322 36.2813 24.4708 35.4373 23.641C34.5934 22.8111 34.0163 21.7503 33.7795 20.5932C33.5428 19.4362 33.6569 18.2351 34.1075 17.1428C34.558 16.0505 35.3247 15.1161 36.31 14.4586C37.2953 13.801 38.4548 13.4498 39.6411 13.4497C41.218 13.4404 42.734 14.0549 43.8558 15.158C44.9777 16.2611 45.6135 17.7625 45.6234 19.3321V19.3321Z" fill="black" fill-opacity="0.2"/>
<path d="M50.6092 19.3321C50.6092 13.3748 45.6988 8.54691 39.6411 8.54691C37.298 8.54089 35.0151 9.28465 33.129 10.6685V9.02669H28.668V37.0142H33.1265C33.1265 37.0142 33.1416 28.0432 33.1265 28.0182C35.0182 29.3888 37.2988 30.1248 39.6386 30.1198C45.6962 30.1198 50.6067 25.2919 50.6067 19.3371L50.6092 19.3321ZM45.6234 19.3321C45.6379 20.5128 45.2993 21.6712 44.6508 22.66C44.0023 23.6487 43.0731 24.4232 41.9813 24.8851C40.8895 25.3469 39.6845 25.4752 38.5192 25.2537C37.354 25.0322 36.2813 24.4708 35.4373 23.641C34.5934 22.8111 34.0163 21.7503 33.7795 20.5932C33.5428 19.4362 33.6569 18.2351 34.1075 17.1428C34.558 16.0505 35.3247 15.1161 36.31 14.4586C37.2953 13.801 38.4548 13.4498 39.6411 13.4497C41.218 13.4404 42.734 14.0549 43.8558 15.158C44.9777 16.2611 45.6135 17.7625 45.6234 19.3321V19.3321Z" fill="black" fill-opacity="0.2"/>
<path d="M50.6092 19.3321C50.6092 13.3748 45.6988 8.54691 39.6411 8.54691C37.298 8.54089 35.0151 9.28465 33.129 10.6685V9.02669H28.668V37.0142H33.1265C33.1265 37.0142 33.1416 28.0432 33.1265 28.0182C35.0182 29.3888 37.2988 30.1248 39.6386 30.1198C45.6962 30.1198 50.6067 25.2919 50.6067 19.3371L50.6092 19.3321ZM45.6234 19.3321C45.6379 20.5128 45.2993 21.6712 44.6508 22.66C44.0023 23.6487 43.0731 24.4232 41.9813 24.8851C40.8895 25.3469 39.6845 25.4752 38.5192 25.2537C37.354 25.0322 36.2813 24.4708 35.4373 23.641C34.5934 22.8111 34.0163 21.7503 33.7795 20.5932C33.5428 19.4362 33.6569 18.2351 34.1075 17.1428C34.558 16.0505 35.3247 15.1161 36.31 14.4586C37.2953 13.801 38.4548 13.4498 39.6411 13.4497C41.218 13.4404 42.734 14.0549 43.8558 15.158C44.9777 16.2611 45.6135 17.7625 45.6234 19.3321V19.3321Z" fill="black" fill-opacity="0.2"/>
<path d="M50.6092 19.3321C50.6092 13.3748 45.6988 8.54691 39.6411 8.54691C37.298 8.54089 35.0151 9.28465 33.129 10.6685V9.02669H28.668V37.0142H33.1265C33.1265 37.0142 33.1416 28.0432 33.1265 28.0182C35.0182 29.3888 37.2988 30.1248 39.6386 30.1198C45.6962 30.1198 50.6067 25.2919 50.6067 19.3371L50.6092 19.3321ZM45.6234 19.3321C45.6379 20.5128 45.2993 21.6712 44.6508 22.66C44.0023 23.6487 43.0731 24.4232 41.9813 24.8851C40.8895 25.3469 39.6845 25.4752 38.5192 25.2537C37.354 25.0322 36.2813 24.4708 35.4373 23.641C34.5934 22.8111 34.0163 21.7503 33.7795 20.5932C33.5428 19.4362 33.6569 18.2351 34.1075 17.1428C34.558 16.0505 35.3247 15.1161 36.31 14.4586C37.2953 13.801 38.4548 13.4498 39.6411 13.4497C41.218 13.4404 42.734 14.0549 43.8558 15.158C44.9777 16.2611 45.6135 17.7625 45.6234 19.3321V19.3321Z" fill="black" fill-opacity="0.2"/>
<path d="M50.6092 19.3321C50.6092 13.3748 45.6988 8.54691 39.6411 8.54691C37.298 8.54089 35.0151 9.28465 33.129 10.6685V9.02669H28.668V37.0142H33.1265C33.1265 37.0142 33.1416 28.0432 33.1265 28.0182C35.0182 29.3888 37.2988 30.1248 39.6386 30.1198C45.6962 30.1198 50.6067 25.2919 50.6067 19.3371L50.6092 19.3321ZM45.6234 19.3321C45.6379 20.5128 45.2993 21.6712 44.6508 22.66C44.0023 23.6487 43.0731 24.4232 41.9813 24.8851C40.8895 25.3469 39.6845 25.4752 38.5192 25.2537C37.354 25.0322 36.2813 24.4708 35.4373 23.641C34.5934 22.8111 34.0163 21.7503 33.7795 20.5932C33.5428 19.4362 33.6569 18.2351 34.1075 17.1428C34.558 16.0505 35.3247 15.1161 36.31 14.4586C37.2953 13.801 38.4548 13.4498 39.6411 13.4497C41.218 13.4404 42.734 14.0549 43.8558 15.158C44.9777 16.2611 45.6135 17.7625 45.6234 19.3321V19.3321Z" fill="black" fill-opacity="0.2"/>
<path d="M50.6092 19.3321C50.6092 13.3748 45.6988 8.54691 39.6411 8.54691C37.298 8.54089 35.0151 9.28465 33.129 10.6685V9.02669H28.668V37.0142H33.1265C33.1265 37.0142 33.1416 28.0432 33.1265 28.0182C35.0182 29.3888 37.2988 30.1248 39.6386 30.1198C45.6962 30.1198 50.6067 25.2919 50.6067 19.3371L50.6092 19.3321ZM45.6234 19.3321C45.6379 20.5128 45.2993 21.6712 44.6508 22.66C44.0023 23.6487 43.0731 24.4232 41.9813 24.8851C40.8895 25.3469 39.6845 25.4752 38.5192 25.2537C37.354 25.0322 36.2813 24.4708 35.4373 23.641C34.5934 22.8111 34.0163 21.7503 33.7795 20.5932C33.5428 19.4362 33.6569 18.2351 34.1075 17.1428C34.558 16.0505 35.3247 15.1161 36.31 14.4586C37.2953 13.801 38.4548 13.4498 39.6411 13.4497C41.218 13.4404 42.734 14.0549 43.8558 15.158C44.9777 16.2611 45.6135 17.7625 45.6234 19.3321V19.3321Z" fill="black" fill-opacity="0.2"/>
<path d="M50.6092 19.3321C50.6092 13.3748 45.6988 8.54691 39.6411 8.54691C37.298 8.54089 35.0151 9.28465 33.129 10.6685V9.02669H28.668V37.0142H33.1265C33.1265 37.0142 33.1416 28.0432 33.1265 28.0182C35.0182 29.3888 37.2988 30.1248 39.6386 30.1198C45.6962 30.1198 50.6067 25.2919 50.6067 19.3371L50.6092 19.3321ZM45.6234 19.3321C45.6379 20.5128 45.2993 21.6712 44.6508 22.66C44.0023 23.6487 43.0731 24.4232 41.9813 24.8851C40.8895 25.3469 39.6845 25.4752 38.5192 25.2537C37.354 25.0322 36.2813 24.4708 35.4373 23.641C34.5934 22.8111 34.0163 21.7503 33.7795 20.5932C33.5428 19.4362 33.6569 18.2351 34.1075 17.1428C34.558 16.0505 35.3247 15.1161 36.31 14.4586C37.2953 13.801 38.4548 13.4498 39.6411 13.4497C41.218 13.4404 42.734 14.0549 43.8558 15.158C44.9777 16.2611 45.6135 17.7625 45.6234 19.3321V19.3321Z" fill="black" fill-opacity="0.2"/>
<path d="M24.8673 29.4176V25.0995H24.5008C23.2807 25.0995 22.5904 24.3798 22.5904 23.2203V9.02666H18.0364V10.6609C16.1384 9.29021 13.8543 8.55042 11.5093 8.54688C5.46168 8.54687 0.55127 13.3747 0.55127 19.3321C0.55127 25.2894 5.46168 30.1148 11.5194 30.1148C14.1954 30.1239 16.7816 29.1546 18.7871 27.391C19.7486 28.8753 21.5259 29.4176 23.5569 29.4176H24.8673ZM17.6222 19.3321C17.6377 20.5367 17.2929 21.7188 16.6317 22.7279C15.9706 23.737 15.023 24.5277 13.9092 24.9994C12.7955 25.4711 11.5661 25.6025 10.3772 25.3769C9.18825 25.1513 8.09356 24.5789 7.23225 23.7325C6.37095 22.8861 5.78193 21.8039 5.54007 20.6234C5.29822 19.443 5.41444 18.2176 5.87398 17.1031C6.33352 15.9885 7.11561 15.0351 8.12084 14.3642C9.12606 13.6932 10.309 13.3348 11.5194 13.3347C13.1275 13.3248 14.6738 13.951 15.8183 15.0756C16.9627 16.2003 17.6116 17.7313 17.6222 19.3321V19.3321Z" fill="black"/>
<path d="M24.8673 29.4176V25.0995H24.5008C23.2807 25.0995 22.5904 24.3798 22.5904 23.2203V9.02666H18.0364V10.6609C16.1384 9.29021 13.8543 8.55042 11.5093 8.54688C5.46168 8.54687 0.55127 13.3747 0.55127 19.3321C0.55127 25.2894 5.46168 30.1148 11.5194 30.1148C14.1954 30.1239 16.7816 29.1546 18.7871 27.391C19.7486 28.8753 21.5259 29.4176 23.5569 29.4176H24.8673ZM17.6222 19.3321C17.6377 20.5367 17.2929 21.7188 16.6317 22.7279C15.9706 23.737 15.023 24.5277 13.9092 24.9994C12.7955 25.4711 11.5661 25.6025 10.3772 25.3769C9.18825 25.1513 8.09356 24.5789 7.23225 23.7325C6.37095 22.8861 5.78193 21.8039 5.54007 20.6234C5.29822 19.443 5.41444 18.2176 5.87398 17.1031C6.33352 15.9885 7.11561 15.0351 8.12084 14.3642C9.12606 13.6932 10.309 13.3348 11.5194 13.3347C13.1275 13.3248 14.6738 13.951 15.8183 15.0756C16.9627 16.2003 17.6116 17.7313 17.6222 19.3321V19.3321Z" fill="black" fill-opacity="0.2"/>
<path d="M24.8673 29.4176V25.0995H24.5008C23.2807 25.0995 22.5904 24.3798 22.5904 23.2203V9.02666H18.0364V10.6609C16.1384 9.29021 13.8543 8.55042 11.5093 8.54688C5.46168 8.54687 0.55127 13.3747 0.55127 19.3321C0.55127 25.2894 5.46168 30.1148 11.5194 30.1148C14.1954 30.1239 16.7816 29.1546 18.7871 27.391C19.7486 28.8753 21.5259 29.4176 23.5569 29.4176H24.8673ZM17.6222 19.3321C17.6377 20.5367 17.2929 21.7188 16.6317 22.7279C15.9706 23.737 15.023 24.5277 13.9092 24.9994C12.7955 25.4711 11.5661 25.6025 10.3772 25.3769C9.18825 25.1513 8.09356 24.5789 7.23225 23.7325C6.37095 22.8861 5.78193 21.8039 5.54007 20.6234C5.29822 19.443 5.41444 18.2176 5.87398 17.1031C6.33352 15.9885 7.11561 15.0351 8.12084 14.3642C9.12606 13.6932 10.309 13.3348 11.5194 13.3347C13.1275 13.3248 14.6738 13.951 15.8183 15.0756C16.9627 16.2003 17.6116 17.7313 17.6222 19.3321V19.3321Z" fill="black" fill-opacity="0.2"/>
<path d="M24.8673 29.4176V25.0995H24.5008C23.2807 25.0995 22.5904 24.3798 22.5904 23.2203V9.02666H18.0364V10.6609C16.1384 9.29021 13.8543 8.55042 11.5093 8.54688C5.46168 8.54687 0.55127 13.3747 0.55127 19.3321C0.55127 25.2894 5.46168 30.1148 11.5194 30.1148C14.1954 30.1239 16.7816 29.1546 18.7871 27.391C19.7486 28.8753 21.5259 29.4176 23.5569 29.4176H24.8673ZM17.6222 19.3321C17.6377 20.5367 17.2929 21.7188 16.6317 22.7279C15.9706 23.737 15.023 24.5277 13.9092 24.9994C12.7955 25.4711 11.5661 25.6025 10.3772 25.3769C9.18825 25.1513 8.09356 24.5789 7.23225 23.7325C6.37095 22.8861 5.78193 21.8039 5.54007 20.6234C5.29822 19.443 5.41444 18.2176 5.87398 17.1031C6.33352 15.9885 7.11561 15.0351 8.12084 14.3642C9.12606 13.6932 10.309 13.3348 11.5194 13.3347C13.1275 13.3248 14.6738 13.951 15.8183 15.0756C16.9627 16.2003 17.6116 17.7313 17.6222 19.3321V19.3321Z" fill="black" fill-opacity="0.2"/>
<path d="M24.8673 29.4176V25.0995H24.5008C23.2807 25.0995 22.5904 24.3798 22.5904 23.2203V9.02666H18.0364V10.6609C16.1384 9.29021 13.8543 8.55042 11.5093 8.54688C5.46168 8.54687 0.55127 13.3747 0.55127 19.3321C0.55127 25.2894 5.46168 30.1148 11.5194 30.1148C14.1954 30.1239 16.7816 29.1546 18.7871 27.391C19.7486 28.8753 21.5259 29.4176 23.5569 29.4176H24.8673ZM17.6222 19.3321C17.6377 20.5367 17.2929 21.7188 16.6317 22.7279C15.9706 23.737 15.023 24.5277 13.9092 24.9994C12.7955 25.4711 11.5661 25.6025 10.3772 25.3769C9.18825 25.1513 8.09356 24.5789 7.23225 23.7325C6.37095 22.8861 5.78193 21.8039 5.54007 20.6234C5.29822 19.443 5.41444 18.2176 5.87398 17.1031C6.33352 15.9885 7.11561 15.0351 8.12084 14.3642C9.12606 13.6932 10.309 13.3348 11.5194 13.3347C13.1275 13.3248 14.6738 13.951 15.8183 15.0756C16.9627 16.2003 17.6116 17.7313 17.6222 19.3321V19.3321Z" fill="black" fill-opacity="0.2"/>
<path d="M24.8673 29.4176V25.0995H24.5008C23.2807 25.0995 22.5904 24.3798 22.5904 23.2203V9.02666H18.0364V10.6609C16.1384 9.29021 13.8543 8.55042 11.5093 8.54688C5.46168 8.54687 0.55127 13.3747 0.55127 19.3321C0.55127 25.2894 5.46168 30.1148 11.5194 30.1148C14.1954 30.1239 16.7816 29.1546 18.7871 27.391C19.7486 28.8753 21.5259 29.4176 23.5569 29.4176H24.8673ZM17.6222 19.3321C17.6377 20.5367 17.2929 21.7188 16.6317 22.7279C15.9706 23.737 15.023 24.5277 13.9092 24.9994C12.7955 25.4711 11.5661 25.6025 10.3772 25.3769C9.18825 25.1513 8.09356 24.5789 7.23225 23.7325C6.37095 22.8861 5.78193 21.8039 5.54007 20.6234C5.29822 19.443 5.41444 18.2176 5.87398 17.1031C6.33352 15.9885 7.11561 15.0351 8.12084 14.3642C9.12606 13.6932 10.309 13.3348 11.5194 13.3347C13.1275 13.3248 14.6738 13.951 15.8183 15.0756C16.9627 16.2003 17.6116 17.7313 17.6222 19.3321V19.3321Z" fill="black" fill-opacity="0.2"/>
<path d="M24.8673 29.4176V25.0995H24.5008C23.2807 25.0995 22.5904 24.3798 22.5904 23.2203V9.02666H18.0364V10.6609C16.1384 9.29021 13.8543 8.55042 11.5093 8.54688C5.46168 8.54687 0.55127 13.3747 0.55127 19.3321C0.55127 25.2894 5.46168 30.1148 11.5194 30.1148C14.1954 30.1239 16.7816 29.1546 18.7871 27.391C19.7486 28.8753 21.5259 29.4176 23.5569 29.4176H24.8673ZM17.6222 19.3321C17.6377 20.5367 17.2929 21.7188 16.6317 22.7279C15.9706 23.737 15.023 24.5277 13.9092 24.9994C12.7955 25.4711 11.5661 25.6025 10.3772 25.3769C9.18825 25.1513 8.09356 24.5789 7.23225 23.7325C6.37095 22.8861 5.78193 21.8039 5.54007 20.6234C5.29822 19.443 5.41444 18.2176 5.87398 17.1031C6.33352 15.9885 7.11561 15.0351 8.12084 14.3642C9.12606 13.6932 10.309 13.3348 11.5194 13.3347C13.1275 13.3248 14.6738 13.951 15.8183 15.0756C16.9627 16.2003 17.6116 17.7313 17.6222 19.3321V19.3321Z" fill="black" fill-opacity="0.2"/>
<path d="M24.8673 29.4176V25.0995H24.5008C23.2807 25.0995 22.5904 24.3798 22.5904 23.2203V9.02666H18.0364V10.6609C16.1384 9.29021 13.8543 8.55042 11.5093 8.54688C5.46168 8.54687 0.55127 13.3747 0.55127 19.3321C0.55127 25.2894 5.46168 30.1148 11.5194 30.1148C14.1954 30.1239 16.7816 29.1546 18.7871 27.391C19.7486 28.8753 21.5259 29.4176 23.5569 29.4176H24.8673ZM17.6222 19.3321C17.6377 20.5367 17.2929 21.7188 16.6317 22.7279C15.9706 23.737 15.023 24.5277 13.9092 24.9994C12.7955 25.4711 11.5661 25.6025 10.3772 25.3769C9.18825 25.1513 8.09356 24.5789 7.23225 23.7325C6.37095 22.8861 5.78193 21.8039 5.54007 20.6234C5.29822 19.443 5.41444 18.2176 5.87398 17.1031C6.33352 15.9885 7.11561 15.0351 8.12084 14.3642C9.12606 13.6932 10.309 13.3348 11.5194 13.3347C13.1275 13.3248 14.6738 13.951 15.8183 15.0756C16.9627 16.2003 17.6116 17.7313 17.6222 19.3321V19.3321Z" fill="black" fill-opacity="0.2"/>
<path d="M60.5908 29.5052H62.5414V25.362H61.5046C59.9682 25.362 59.0118 24.5174 59.0118 23.0281V0.538086H54.1089V23.7777C54.1089 27.4786 56.3532 29.4902 60.5908 29.4902V29.5052Z" fill="black"/>
<path d="M60.5908 29.5052H62.5414V25.362H61.5046C59.9682 25.362 59.0118 24.5174 59.0118 23.0281V0.538086H54.1089V23.7777C54.1089 27.4786 56.3532 29.4902 60.5908 29.4902V29.5052Z" fill="black" fill-opacity="0.2"/>
<path d="M60.5908 29.5052H62.5414V25.362H61.5046C59.9682 25.362 59.0118 24.5174 59.0118 23.0281V0.538086H54.1089V23.7777C54.1089 27.4786 56.3532 29.4902 60.5908 29.4902V29.5052Z" fill="black" fill-opacity="0.2"/>
<path d="M60.5908 29.5052H62.5414V25.362H61.5046C59.9682 25.362 59.0118 24.5174 59.0118 23.0281V0.538086H54.1089V23.7777C54.1089 27.4786 56.3532 29.4902 60.5908 29.4902V29.5052Z" fill="black" fill-opacity="0.2"/>
<path d="M60.5908 29.5052H62.5414V25.362H61.5046C59.9682 25.362 59.0118 24.5174 59.0118 23.0281V0.538086H54.1089V23.7777C54.1089 27.4786 56.3532 29.4902 60.5908 29.4902V29.5052Z" fill="black" fill-opacity="0.2"/>
<path d="M60.5908 29.5052H62.5414V25.362H61.5046C59.9682 25.362 59.0118 24.5174 59.0118 23.0281V0.538086H54.1089V23.7777C54.1089 27.4786 56.3532 29.4902 60.5908 29.4902V29.5052Z" fill="black" fill-opacity="0.2"/>
<path d="M60.5908 29.5052H62.5414V25.362H61.5046C59.9682 25.362 59.0118 24.5174 59.0118 23.0281V0.538086H54.1089V23.7777C54.1089 27.4786 56.3532 29.4902 60.5908 29.4902V29.5052Z" fill="black" fill-opacity="0.2"/>
<path d="M60.5908 29.5052H62.5414V25.362H61.5046C59.9682 25.362 59.0118 24.5174 59.0118 23.0281V0.538086H54.1089V23.7777C54.1089 27.4786 56.3532 29.4902 60.5908 29.4902V29.5052Z" fill="black" fill-opacity="0.2"/>
<path d="M86.1394 19.3321C86.1394 13.3747 81.2264 8.54688 75.1688 8.54688C69.1111 8.54688 64.2007 13.3747 64.2007 19.3321C64.2007 25.2894 69.1111 30.1148 75.1688 30.1148C81.2264 30.1148 86.1394 25.2869 86.1394 19.3321V19.3321ZM81.1511 19.3321C81.1656 20.5128 80.827 21.6712 80.1785 22.6599C79.53 23.6487 78.6008 24.4232 77.509 24.885C76.4172 25.3469 75.2122 25.4752 74.0469 25.2537C72.8817 25.0321 71.809 24.4708 70.965 23.6409C70.1211 22.8111 69.544 21.7502 69.3072 20.5932C69.0704 19.4361 69.1846 18.2351 69.6352 17.1428C70.0857 16.0504 70.8524 15.1161 71.8377 14.4585C72.823 13.8009 73.9825 13.4498 75.1688 13.4497C76.7456 13.4404 78.2617 14.0548 79.3835 15.1579C80.5054 16.261 81.1412 17.7624 81.1511 19.3321V19.3321Z" fill="black"/>
<path d="M86.1394 19.3321C86.1394 13.3747 81.2264 8.54688 75.1688 8.54688C69.1111 8.54688 64.2007 13.3747 64.2007 19.3321C64.2007 25.2894 69.1111 30.1148 75.1688 30.1148C81.2264 30.1148 86.1394 25.2869 86.1394 19.3321V19.3321ZM81.1511 19.3321C81.1656 20.5128 80.827 21.6712 80.1785 22.6599C79.53 23.6487 78.6008 24.4232 77.509 24.885C76.4172 25.3469 75.2122 25.4752 74.0469 25.2537C72.8817 25.0321 71.809 24.4708 70.965 23.6409C70.1211 22.8111 69.544 21.7502 69.3072 20.5932C69.0704 19.4361 69.1846 18.2351 69.6352 17.1428C70.0857 16.0504 70.8524 15.1161 71.8377 14.4585C72.823 13.8009 73.9825 13.4498 75.1688 13.4497C76.7456 13.4404 78.2617 14.0548 79.3835 15.1579C80.5054 16.261 81.1412 17.7624 81.1511 19.3321V19.3321Z" fill="black" fill-opacity="0.2"/>
<path d="M86.1394 19.3321C86.1394 13.3747 81.2264 8.54688 75.1688 8.54688C69.1111 8.54688 64.2007 13.3747 64.2007 19.3321C64.2007 25.2894 69.1111 30.1148 75.1688 30.1148C81.2264 30.1148 86.1394 25.2869 86.1394 19.3321V19.3321ZM81.1511 19.3321C81.1656 20.5128 80.827 21.6712 80.1785 22.6599C79.53 23.6487 78.6008 24.4232 77.509 24.885C76.4172 25.3469 75.2122 25.4752 74.0469 25.2537C72.8817 25.0321 71.809 24.4708 70.965 23.6409C70.1211 22.8111 69.544 21.7502 69.3072 20.5932C69.0704 19.4361 69.1846 18.2351 69.6352 17.1428C70.0857 16.0504 70.8524 15.1161 71.8377 14.4585C72.823 13.8009 73.9825 13.4498 75.1688 13.4497C76.7456 13.4404 78.2617 14.0548 79.3835 15.1579C80.5054 16.261 81.1412 17.7624 81.1511 19.3321V19.3321Z" fill="black" fill-opacity="0.2"/>
<path d="M86.1394 19.3321C86.1394 13.3747 81.2264 8.54688 75.1688 8.54688C69.1111 8.54688 64.2007 13.3747 64.2007 19.3321C64.2007 25.2894 69.1111 30.1148 75.1688 30.1148C81.2264 30.1148 86.1394 25.2869 86.1394 19.3321V19.3321ZM81.1511 19.3321C81.1656 20.5128 80.827 21.6712 80.1785 22.6599C79.53 23.6487 78.6008 24.4232 77.509 24.885C76.4172 25.3469 75.2122 25.4752 74.0469 25.2537C72.8817 25.0321 71.809 24.4708 70.965 23.6409C70.1211 22.8111 69.544 21.7502 69.3072 20.5932C69.0704 19.4361 69.1846 18.2351 69.6352 17.1428C70.0857 16.0504 70.8524 15.1161 71.8377 14.4585C72.823 13.8009 73.9825 13.4498 75.1688 13.4497C76.7456 13.4404 78.2617 14.0548 79.3835 15.1579C80.5054 16.261 81.1412 17.7624 81.1511 19.3321V19.3321Z" fill="black" fill-opacity="0.2"/>
<path d="M86.1394 19.3321C86.1394 13.3747 81.2264 8.54688 75.1688 8.54688C69.1111 8.54688 64.2007 13.3747 64.2007 19.3321C64.2007 25.2894 69.1111 30.1148 75.1688 30.1148C81.2264 30.1148 86.1394 25.2869 86.1394 19.3321V19.3321ZM81.1511 19.3321C81.1656 20.5128 80.827 21.6712 80.1785 22.6599C79.53 23.6487 78.6008 24.4232 77.509 24.885C76.4172 25.3469 75.2122 25.4752 74.0469 25.2537C72.8817 25.0321 71.809 24.4708 70.965 23.6409C70.1211 22.8111 69.544 21.7502 69.3072 20.5932C69.0704 19.4361 69.1846 18.2351 69.6352 17.1428C70.0857 16.0504 70.8524 15.1161 71.8377 14.4585C72.823 13.8009 73.9825 13.4498 75.1688 13.4497C76.7456 13.4404 78.2617 14.0548 79.3835 15.1579C80.5054 16.261 81.1412 17.7624 81.1511 19.3321V19.3321Z" fill="black" fill-opacity="0.2"/>
<path d="M86.1394 19.3321C86.1394 13.3747 81.2264 8.54688 75.1688 8.54688C69.1111 8.54688 64.2007 13.3747 64.2007 19.3321C64.2007 25.2894 69.1111 30.1148 75.1688 30.1148C81.2264 30.1148 86.1394 25.2869 86.1394 19.3321V19.3321ZM81.1511 19.3321C81.1656 20.5128 80.827 21.6712 80.1785 22.6599C79.53 23.6487 78.6008 24.4232 77.509 24.885C76.4172 25.3469 75.2122 25.4752 74.0469 25.2537C72.8817 25.0321 71.809 24.4708 70.965 23.6409C70.1211 22.8111 69.544 21.7502 69.3072 20.5932C69.0704 19.4361 69.1846 18.2351 69.6352 17.1428C70.0857 16.0504 70.8524 15.1161 71.8377 14.4585C72.823 13.8009 73.9825 13.4498 75.1688 13.4497C76.7456 13.4404 78.2617 14.0548 79.3835 15.1579C80.5054 16.261 81.1412 17.7624 81.1511 19.3321V19.3321Z" fill="black" fill-opacity="0.2"/>
<path d="M86.1394 19.3321C86.1394 13.3747 81.2264 8.54688 75.1688 8.54688C69.1111 8.54688 64.2007 13.3747 64.2007 19.3321C64.2007 25.2894 69.1111 30.1148 75.1688 30.1148C81.2264 30.1148 86.1394 25.2869 86.1394 19.3321V19.3321ZM81.1511 19.3321C81.1656 20.5128 80.827 21.6712 80.1785 22.6599C79.53 23.6487 78.6008 24.4232 77.509 24.885C76.4172 25.3469 75.2122 25.4752 74.0469 25.2537C72.8817 25.0321 71.809 24.4708 70.965 23.6409C70.1211 22.8111 69.544 21.7502 69.3072 20.5932C69.0704 19.4361 69.1846 18.2351 69.6352 17.1428C70.0857 16.0504 70.8524 15.1161 71.8377 14.4585C72.823 13.8009 73.9825 13.4498 75.1688 13.4497C76.7456 13.4404 78.2617 14.0548 79.3835 15.1579C80.5054 16.261 81.1412 17.7624 81.1511 19.3321V19.3321Z" fill="black" fill-opacity="0.2"/>
<path d="M86.1394 19.3321C86.1394 13.3747 81.2264 8.54688 75.1688 8.54688C69.1111 8.54688 64.2007 13.3747 64.2007 19.3321C64.2007 25.2894 69.1111 30.1148 75.1688 30.1148C81.2264 30.1148 86.1394 25.2869 86.1394 19.3321V19.3321ZM81.1511 19.3321C81.1656 20.5128 80.827 21.6712 80.1785 22.6599C79.53 23.6487 78.6008 24.4232 77.509 24.885C76.4172 25.3469 75.2122 25.4752 74.0469 25.2537C72.8817 25.0321 71.809 24.4708 70.965 23.6409C70.1211 22.8111 69.544 21.7502 69.3072 20.5932C69.0704 19.4361 69.1846 18.2351 69.6352 17.1428C70.0857 16.0504 70.8524 15.1161 71.8377 14.4585C72.823 13.8009 73.9825 13.4498 75.1688 13.4497C76.7456 13.4404 78.2617 14.0548 79.3835 15.1579C80.5054 16.261 81.1412 17.7624 81.1511 19.3321V19.3321Z" fill="black" fill-opacity="0.2"/>
<path d="M80.6138 42.0548C80.6278 43.1381 80.3178 44.201 79.7233 45.1085C79.1289 46.016 78.2767 46.727 77.2753 47.1512C76.2738 47.5754 75.1683 47.6936 74.0991 47.4908C73.03 47.288 72.0456 46.7733 71.2711 46.0122C70.4966 45.2511 69.9669 44.278 69.7494 43.2165C69.5319 42.155 69.6364 41.0531 70.0496 40.0508C70.4628 39.0486 71.1661 38.1913 72.07 37.5879C72.9739 36.9845 74.0377 36.6623 75.126 36.6622C75.8421 36.6576 76.552 36.7934 77.2154 37.062C77.8787 37.3305 78.4824 37.7264 78.992 38.2272C79.5016 38.7279 79.9071 39.3237 80.1854 39.9804C80.4636 40.6372 80.6092 41.3421 80.6138 42.0548V42.0548Z" fill="black"/>
<path d="M80.6138 42.0548C80.6278 43.1381 80.3178 44.201 79.7233 45.1085C79.1289 46.016 78.2767 46.727 77.2753 47.1512C76.2738 47.5754 75.1683 47.6936 74.0991 47.4908C73.03 47.288 72.0456 46.7733 71.2711 46.0122C70.4966 45.2511 69.9669 44.278 69.7494 43.2165C69.5319 42.155 69.6364 41.0531 70.0496 40.0508C70.4628 39.0486 71.1661 38.1913 72.07 37.5879C72.9739 36.9845 74.0377 36.6623 75.126 36.6622C75.8421 36.6576 76.552 36.7934 77.2154 37.062C77.8787 37.3305 78.4824 37.7264 78.992 38.2272C79.5016 38.7279 79.9071 39.3237 80.1854 39.9804C80.4636 40.6372 80.6092 41.3421 80.6138 42.0548V42.0548Z" fill="black" fill-opacity="0.2"/>
<path d="M80.6138 42.0548C80.6278 43.1381 80.3178 44.201 79.7233 45.1085C79.1289 46.016 78.2767 46.727 77.2753 47.1512C76.2738 47.5754 75.1683 47.6936 74.0991 47.4908C73.03 47.288 72.0456 46.7733 71.2711 46.0122C70.4966 45.2511 69.9669 44.278 69.7494 43.2165C69.5319 42.155 69.6364 41.0531 70.0496 40.0508C70.4628 39.0486 71.1661 38.1913 72.07 37.5879C72.9739 36.9845 74.0377 36.6623 75.126 36.6622C75.8421 36.6576 76.552 36.7934 77.2154 37.062C77.8787 37.3305 78.4824 37.7264 78.992 38.2272C79.5016 38.7279 79.9071 39.3237 80.1854 39.9804C80.4636 40.6372 80.6092 41.3421 80.6138 42.0548V42.0548Z" fill="black" fill-opacity="0.2"/>
<path d="M80.6138 42.0548C80.6278 43.1381 80.3178 44.201 79.7233 45.1085C79.1289 46.016 78.2767 46.727 77.2753 47.1512C76.2738 47.5754 75.1683 47.6936 74.0991 47.4908C73.03 47.288 72.0456 46.7733 71.2711 46.0122C70.4966 45.2511 69.9669 44.278 69.7494 43.2165C69.5319 42.155 69.6364 41.0531 70.0496 40.0508C70.4628 39.0486 71.1661 38.1913 72.07 37.5879C72.9739 36.9845 74.0377 36.6623 75.126 36.6622C75.8421 36.6576 76.552 36.7934 77.2154 37.062C77.8787 37.3305 78.4824 37.7264 78.992 38.2272C79.5016 38.7279 79.9071 39.3237 80.1854 39.9804C80.4636 40.6372 80.6092 41.3421 80.6138 42.0548V42.0548Z" fill="black" fill-opacity="0.2"/>
<path d="M80.6138 42.0548C80.6278 43.1381 80.3178 44.201 79.7233 45.1085C79.1289 46.016 78.2767 46.727 77.2753 47.1512C76.2738 47.5754 75.1683 47.6936 74.0991 47.4908C73.03 47.288 72.0456 46.7733 71.2711 46.0122C70.4966 45.2511 69.9669 44.278 69.7494 43.2165C69.5319 42.155 69.6364 41.0531 70.0496 40.0508C70.4628 39.0486 71.1661 38.1913 72.07 37.5879C72.9739 36.9845 74.0377 36.6623 75.126 36.6622C75.8421 36.6576 76.552 36.7934 77.2154 37.062C77.8787 37.3305 78.4824 37.7264 78.992 38.2272C79.5016 38.7279 79.9071 39.3237 80.1854 39.9804C80.4636 40.6372 80.6092 41.3421 80.6138 42.0548V42.0548Z" fill="black" fill-opacity="0.2"/>
<path d="M80.6138 42.0548C80.6278 43.1381 80.3178 44.201 79.7233 45.1085C79.1289 46.016 78.2767 46.727 77.2753 47.1512C76.2738 47.5754 75.1683 47.6936 74.0991 47.4908C73.03 47.288 72.0456 46.7733 71.2711 46.0122C70.4966 45.2511 69.9669 44.278 69.7494 43.2165C69.5319 42.155 69.6364 41.0531 70.0496 40.0508C70.4628 39.0486 71.1661 38.1913 72.07 37.5879C72.9739 36.9845 74.0377 36.6623 75.126 36.6622C75.8421 36.6576 76.552 36.7934 77.2154 37.062C77.8787 37.3305 78.4824 37.7264 78.992 38.2272C79.5016 38.7279 79.9071 39.3237 80.1854 39.9804C80.4636 40.6372 80.6092 41.3421 80.6138 42.0548V42.0548Z" fill="black" fill-opacity="0.2"/>
<path d="M80.6138 42.0548C80.6278 43.1381 80.3178 44.201 79.7233 45.1085C79.1289 46.016 78.2767 46.727 77.2753 47.1512C76.2738 47.5754 75.1683 47.6936 74.0991 47.4908C73.03 47.288 72.0456 46.7733 71.2711 46.0122C70.4966 45.2511 69.9669 44.278 69.7494 43.2165C69.5319 42.155 69.6364 41.0531 70.0496 40.0508C70.4628 39.0486 71.1661 38.1913 72.07 37.5879C72.9739 36.9845 74.0377 36.6623 75.126 36.6622C75.8421 36.6576 76.552 36.7934 77.2154 37.062C77.8787 37.3305 78.4824 37.7264 78.992 38.2272C79.5016 38.7279 79.9071 39.3237 80.1854 39.9804C80.4636 40.6372 80.6092 41.3421 80.6138 42.0548V42.0548Z" fill="black" fill-opacity="0.2"/>
<path d="M80.6138 42.0548C80.6278 43.1381 80.3178 44.201 79.7233 45.1085C79.1289 46.016 78.2767 46.727 77.2753 47.1512C76.2738 47.5754 75.1683 47.6936 74.0991 47.4908C73.03 47.288 72.0456 46.7733 71.2711 46.0122C70.4966 45.2511 69.9669 44.278 69.7494 43.2165C69.5319 42.155 69.6364 41.0531 70.0496 40.0508C70.4628 39.0486 71.1661 38.1913 72.07 37.5879C72.9739 36.9845 74.0377 36.6623 75.126 36.6622C75.8421 36.6576 76.552 36.7934 77.2154 37.062C77.8787 37.3305 78.4824 37.7264 78.992 38.2272C79.5016 38.7279 79.9071 39.3237 80.1854 39.9804C80.4636 40.6372 80.6092 41.3421 80.6138 42.0548V42.0548Z" fill="black" fill-opacity="0.2"/>
<path d="M96.5328 42.0548C96.5467 43.1381 96.2367 44.201 95.6423 45.1085C95.0478 46.016 94.1957 46.727 93.1942 47.1512C92.1928 47.5754 91.0872 47.6936 90.0181 47.4908C88.949 47.288 87.9646 46.7733 87.19 46.0122C86.4155 45.2511 85.8858 44.278 85.6683 43.2165C85.4508 42.155 85.5553 41.0531 85.9685 40.0508C86.3817 39.0486 87.085 38.1913 87.9889 37.5879C88.8929 36.9845 89.9566 36.6623 91.045 36.6622C91.761 36.6576 92.471 36.7934 93.1343 37.062C93.7976 37.3305 94.4013 37.7264 94.9109 38.2272C95.4205 38.7279 95.826 39.3237 96.1043 39.9804C96.3826 40.6372 96.5282 41.3421 96.5328 42.0548V42.0548Z" fill="black"/>
<path d="M96.5328 42.0548C96.5467 43.1381 96.2367 44.201 95.6423 45.1085C95.0478 46.016 94.1957 46.727 93.1942 47.1512C92.1928 47.5754 91.0872 47.6936 90.0181 47.4908C88.949 47.288 87.9646 46.7733 87.19 46.0122C86.4155 45.2511 85.8858 44.278 85.6683 43.2165C85.4508 42.155 85.5553 41.0531 85.9685 40.0508C86.3817 39.0486 87.085 38.1913 87.9889 37.5879C88.8929 36.9845 89.9566 36.6623 91.045 36.6622C91.761 36.6576 92.471 36.7934 93.1343 37.062C93.7976 37.3305 94.4013 37.7264 94.9109 38.2272C95.4205 38.7279 95.826 39.3237 96.1043 39.9804C96.3826 40.6372 96.5282 41.3421 96.5328 42.0548V42.0548Z" fill="black" fill-opacity="0.2"/>
<path d="M96.5328 42.0548C96.5467 43.1381 96.2367 44.201 95.6423 45.1085C95.0478 46.016 94.1957 46.727 93.1942 47.1512C92.1928 47.5754 91.0872 47.6936 90.0181 47.4908C88.949 47.288 87.9646 46.7733 87.19 46.0122C86.4155 45.2511 85.8858 44.278 85.6683 43.2165C85.4508 42.155 85.5553 41.0531 85.9685 40.0508C86.3817 39.0486 87.085 38.1913 87.9889 37.5879C88.8929 36.9845 89.9566 36.6623 91.045 36.6622C91.761 36.6576 92.471 36.7934 93.1343 37.062C93.7976 37.3305 94.4013 37.7264 94.9109 38.2272C95.4205 38.7279 95.826 39.3237 96.1043 39.9804C96.3826 40.6372 96.5282 41.3421 96.5328 42.0548V42.0548Z" fill="black" fill-opacity="0.2"/>
<path d="M96.5328 42.0548C96.5467 43.1381 96.2367 44.201 95.6423 45.1085C95.0478 46.016 94.1957 46.727 93.1942 47.1512C92.1928 47.5754 91.0872 47.6936 90.0181 47.4908C88.949 47.288 87.9646 46.7733 87.19 46.0122C86.4155 45.2511 85.8858 44.278 85.6683 43.2165C85.4508 42.155 85.5553 41.0531 85.9685 40.0508C86.3817 39.0486 87.085 38.1913 87.9889 37.5879C88.8929 36.9845 89.9566 36.6623 91.045 36.6622C91.761 36.6576 92.471 36.7934 93.1343 37.062C93.7976 37.3305 94.4013 37.7264 94.9109 38.2272C95.4205 38.7279 95.826 39.3237 96.1043 39.9804C96.3826 40.6372 96.5282 41.3421 96.5328 42.0548V42.0548Z" fill="black" fill-opacity="0.2"/>
<path d="M96.5328 42.0548C96.5467 43.1381 96.2367 44.201 95.6423 45.1085C95.0478 46.016 94.1957 46.727 93.1942 47.1512C92.1928 47.5754 91.0872 47.6936 90.0181 47.4908C88.949 47.288 87.9646 46.7733 87.19 46.0122C86.4155 45.2511 85.8858 44.278 85.6683 43.2165C85.4508 42.155 85.5553 41.0531 85.9685 40.0508C86.3817 39.0486 87.085 38.1913 87.9889 37.5879C88.8929 36.9845 89.9566 36.6623 91.045 36.6622C91.761 36.6576 92.471 36.7934 93.1343 37.062C93.7976 37.3305 94.4013 37.7264 94.9109 38.2272C95.4205 38.7279 95.826 39.3237 96.1043 39.9804C96.3826 40.6372 96.5282 41.3421 96.5328 42.0548V42.0548Z" fill="black" fill-opacity="0.2"/>
<path d="M96.5328 42.0548C96.5467 43.1381 96.2367 44.201 95.6423 45.1085C95.0478 46.016 94.1957 46.727 93.1942 47.1512C92.1928 47.5754 91.0872 47.6936 90.0181 47.4908C88.949 47.288 87.9646 46.7733 87.19 46.0122C86.4155 45.2511 85.8858 44.278 85.6683 43.2165C85.4508 42.155 85.5553 41.0531 85.9685 40.0508C86.3817 39.0486 87.085 38.1913 87.9889 37.5879C88.8929 36.9845 89.9566 36.6623 91.045 36.6622C91.761 36.6576 92.471 36.7934 93.1343 37.062C93.7976 37.3305 94.4013 37.7264 94.9109 38.2272C95.4205 38.7279 95.826 39.3237 96.1043 39.9804C96.3826 40.6372 96.5282 41.3421 96.5328 42.0548V42.0548Z" fill="black" fill-opacity="0.2"/>
<path d="M96.5328 42.0548C96.5467 43.1381 96.2367 44.201 95.6423 45.1085C95.0478 46.016 94.1957 46.727 93.1942 47.1512C92.1928 47.5754 91.0872 47.6936 90.0181 47.4908C88.949 47.288 87.9646 46.7733 87.19 46.0122C86.4155 45.2511 85.8858 44.278 85.6683 43.2165C85.4508 42.155 85.5553 41.0531 85.9685 40.0508C86.3817 39.0486 87.085 38.1913 87.9889 37.5879C88.8929 36.9845 89.9566 36.6623 91.045 36.6622C91.761 36.6576 92.471 36.7934 93.1343 37.062C93.7976 37.3305 94.4013 37.7264 94.9109 38.2272C95.4205 38.7279 95.826 39.3237 96.1043 39.9804C96.3826 40.6372 96.5282 41.3421 96.5328 42.0548V42.0548Z" fill="black" fill-opacity="0.2"/>
<path d="M96.5328 42.0548C96.5467 43.1381 96.2367 44.201 95.6423 45.1085C95.0478 46.016 94.1957 46.727 93.1942 47.1512C92.1928 47.5754 91.0872 47.6936 90.0181 47.4908C88.949 47.288 87.9646 46.7733 87.19 46.0122C86.4155 45.2511 85.8858 44.278 85.6683 43.2165C85.4508 42.155 85.5553 41.0531 85.9685 40.0508C86.3817 39.0486 87.085 38.1913 87.9889 37.5879C88.8929 36.9845 89.9566 36.6623 91.045 36.6622C91.761 36.6576 92.471 36.7934 93.1343 37.062C93.7976 37.3305 94.4013 37.7264 94.9109 38.2272C95.4205 38.7279 95.826 39.3237 96.1043 39.9804C96.3826 40.6372 96.5282 41.3421 96.5328 42.0548V42.0548Z" fill="black" fill-opacity="0.2"/>
<path d="M112.449 42.0548C112.463 43.1382 112.153 44.2012 111.558 45.1087C110.964 46.0163 110.111 46.7273 109.11 47.1514C108.108 47.5755 107.002 47.6936 105.933 47.4906C104.864 47.2876 103.88 46.7727 103.105 46.0113C102.331 45.25 101.801 44.2766 101.584 43.2149C101.367 42.1533 101.472 41.0513 101.885 40.0491C102.299 39.0469 103.003 38.1898 103.907 37.5867C104.811 36.9836 105.875 36.6618 106.963 36.6622C108.409 36.6536 109.799 37.2168 110.828 38.228C111.856 39.2393 112.439 40.6157 112.449 42.0548V42.0548Z" fill="black"/>
<path d="M112.449 42.0548C112.463 43.1382 112.153 44.2012 111.558 45.1087C110.964 46.0163 110.111 46.7273 109.11 47.1514C108.108 47.5755 107.002 47.6936 105.933 47.4906C104.864 47.2876 103.88 46.7727 103.105 46.0113C102.331 45.25 101.801 44.2766 101.584 43.2149C101.367 42.1533 101.472 41.0513 101.885 40.0491C102.299 39.0469 103.003 38.1898 103.907 37.5867C104.811 36.9836 105.875 36.6618 106.963 36.6622C108.409 36.6536 109.799 37.2168 110.828 38.228C111.856 39.2393 112.439 40.6157 112.449 42.0548V42.0548Z" fill="black" fill-opacity="0.2"/>
<path d="M112.449 42.0548C112.463 43.1382 112.153 44.2012 111.558 45.1087C110.964 46.0163 110.111 46.7273 109.11 47.1514C108.108 47.5755 107.002 47.6936 105.933 47.4906C104.864 47.2876 103.88 46.7727 103.105 46.0113C102.331 45.25 101.801 44.2766 101.584 43.2149C101.367 42.1533 101.472 41.0513 101.885 40.0491C102.299 39.0469 103.003 38.1898 103.907 37.5867C104.811 36.9836 105.875 36.6618 106.963 36.6622C108.409 36.6536 109.799 37.2168 110.828 38.228C111.856 39.2393 112.439 40.6157 112.449 42.0548V42.0548Z" fill="black" fill-opacity="0.2"/>
<path d="M112.449 42.0548C112.463 43.1382 112.153 44.2012 111.558 45.1087C110.964 46.0163 110.111 46.7273 109.11 47.1514C108.108 47.5755 107.002 47.6936 105.933 47.4906C104.864 47.2876 103.88 46.7727 103.105 46.0113C102.331 45.25 101.801 44.2766 101.584 43.2149C101.367 42.1533 101.472 41.0513 101.885 40.0491C102.299 39.0469 103.003 38.1898 103.907 37.5867C104.811 36.9836 105.875 36.6618 106.963 36.6622C108.409 36.6536 109.799 37.2168 110.828 38.228C111.856 39.2393 112.439 40.6157 112.449 42.0548V42.0548Z" fill="black" fill-opacity="0.2"/>
<path d="M112.449 42.0548C112.463 43.1382 112.153 44.2012 111.558 45.1087C110.964 46.0163 110.111 46.7273 109.11 47.1514C108.108 47.5755 107.002 47.6936 105.933 47.4906C104.864 47.2876 103.88 46.7727 103.105 46.0113C102.331 45.25 101.801 44.2766 101.584 43.2149C101.367 42.1533 101.472 41.0513 101.885 40.0491C102.299 39.0469 103.003 38.1898 103.907 37.5867C104.811 36.9836 105.875 36.6618 106.963 36.6622C108.409 36.6536 109.799 37.2168 110.828 38.228C111.856 39.2393 112.439 40.6157 112.449 42.0548V42.0548Z" fill="black" fill-opacity="0.2"/>
<path d="M112.449 42.0548C112.463 43.1382 112.153 44.2012 111.558 45.1087C110.964 46.0163 110.111 46.7273 109.11 47.1514C108.108 47.5755 107.002 47.6936 105.933 47.4906C104.864 47.2876 103.88 46.7727 103.105 46.0113C102.331 45.25 101.801 44.2766 101.584 43.2149C101.367 42.1533 101.472 41.0513 101.885 40.0491C102.299 39.0469 103.003 38.1898 103.907 37.5867C104.811 36.9836 105.875 36.6618 106.963 36.6622C108.409 36.6536 109.799 37.2168 110.828 38.228C111.856 39.2393 112.439 40.6157 112.449 42.0548V42.0548Z" fill="black" fill-opacity="0.2"/>
<path d="M112.449 42.0548C112.463 43.1382 112.153 44.2012 111.558 45.1087C110.964 46.0163 110.111 46.7273 109.11 47.1514C108.108 47.5755 107.002 47.6936 105.933 47.4906C104.864 47.2876 103.88 46.7727 103.105 46.0113C102.331 45.25 101.801 44.2766 101.584 43.2149C101.367 42.1533 101.472 41.0513 101.885 40.0491C102.299 39.0469 103.003 38.1898 103.907 37.5867C104.811 36.9836 105.875 36.6618 106.963 36.6622C108.409 36.6536 109.799 37.2168 110.828 38.228C111.856 39.2393 112.439 40.6157 112.449 42.0548V42.0548Z" fill="black" fill-opacity="0.2"/>
<path d="M112.449 42.0548C112.463 43.1382 112.153 44.2012 111.558 45.1087C110.964 46.0163 110.111 46.7273 109.11 47.1514C108.108 47.5755 107.002 47.6936 105.933 47.4906C104.864 47.2876 103.88 46.7727 103.105 46.0113C102.331 45.25 101.801 44.2766 101.584 43.2149C101.367 42.1533 101.472 41.0513 101.885 40.0491C102.299 39.0469 103.003 38.1898 103.907 37.5867C104.811 36.9836 105.875 36.6618 106.963 36.6622C108.409 36.6536 109.799 37.2168 110.828 38.228C111.856 39.2393 112.439 40.6157 112.449 42.0548V42.0548Z" fill="black" fill-opacity="0.2"/>
</g>
<defs>
<clipPath id="clip0_850_679">
<rect width="113" height="48" fill="white"/>
</clipPath>
</defs>
</svg>
